<?xml version="1.0" standalone="no"?>
<!DOCTYPE svg PUBLIC "-//W3C//DTD SVG 20010904//EN"
 "http://www.w3.org/TR/2001/REC-SVG-20010904/DTD/svg10.dtd">
<svg version="1.0" xmlns="http://www.w3.org/2000/svg"
 width="900.000000pt" height="900.000000pt" viewBox="0 0 900.000000 900.000000"
 preserveAspectRatio="xMidYMid meet">
<metadata>
Created by potrace 1.10, written by Peter Selinger 2001-2011
</metadata>
<g transform="translate(0.000000,900.000000) scale(0.100000,-0.100000)"
fill="#ffffff" stroke="none">
<path d="M5409 7851 c-20 -4 -62 -22 -95 -41 -32 -18 -68 -38 -79 -44 -11 -7
-38 -23 -60 -37 -22 -14 -67 -41 -100 -59 -33 -18 -67 -39 -76 -46 -8 -8 -18
-14 -21 -14 -4 0 -108 -61 -233 -135 -125 -74 -229 -135 -231 -135 -2 0 -20
-12 -41 -26 -21 -14 -47 -30 -58 -35 -11 -5 -27 -13 -35 -19 -25 -17 -514
-306 -530 -313 -8 -4 -28 -16 -45 -27 -16 -11 -39 -24 -50 -30 -11 -6 -33 -19
-50 -30 -16 -11 -37 -23 -45 -27 -8 -4 -114 -66 -235 -138 -121 -72 -227 -134
-235 -138 -8 -4 -28 -16 -45 -27 -16 -11 -39 -24 -50 -29 -11 -5 -37 -21 -58
-35 -21 -14 -40 -26 -41 -26 -4 0 -498 -291 -526 -310 -8 -6 -24 -14 -35 -19
-11 -5 -38 -22 -60 -37 l-40 -29 -520 -6 c-597 -8 -635 -12 -788 -90 -197 -99
-358 -278 -420 -465 -50 -151 -47 -91 -47 -995 0 -903 -2 -865 47 -994 106
-279 346 -481 633 -537 31 -6 282 -13 575 -17 l520 -6 45 -30 c64 -43 82 -54
105 -64 11 -5 37 -21 58 -35 21 -14 40 -26 42 -26 2 0 95 -54 205 -120 111
-66 204 -120 206 -120 2 0 20 -12 41 -26 21 -14 47 -30 58 -35 11 -5 34 -18
50 -29 17 -11 37 -23 45 -27 8 -4 114 -66 235 -138 121 -72 227 -134 235 -138
8 -4 29 -16 45 -27 17 -11 39 -24 50 -30 11 -6 34 -19 50 -30 17 -11 37 -23
45 -27 16 -8 505 -296 530 -313 8 -6 24 -14 35 -19 11 -5 37 -21 58 -35 21
-14 39 -26 41 -26 2 0 106 -61 231 -135 125 -74 228 -135 230 -135 2 0 21 -12
42 -26 21 -14 47 -30 58 -35 11 -5 34 -18 50 -29 17 -11 39 -24 50 -30 11 -5
27 -14 35 -20 8 -5 51 -31 95 -57 79 -47 81 -47 170 -47 72 -1 96 3 120 18 55
35 116 100 136 145 19 43 19 96 19 3202 l0 3158 -26 56 c-25 52 -57 85 -126
128 -30 19 -137 29 -189 18z m-219 -3361 l0 -2580 -24 0 c-14 0 -28 5 -31 11
-4 5 -17 15 -28 20 -12 5 -35 18 -52 29 -16 11 -39 24 -50 30 -11 5 -27 14
-35 20 -21 14 -362 214 -380 223 -18 9 -40 23 -97 60 -24 15 -45 27 -49 27 -3
0 -26 14 -51 30 -24 17 -46 30 -48 30 -2 0 -72 41 -156 90 -83 50 -153 90
-155 90 -2 0 -20 12 -41 26 -21 14 -47 30 -58 35 -11 5 -33 18 -50 29 -16 11
-37 23 -45 27 -8 4 -103 59 -211 123 -107 64 -202 120 -210 123 -8 4 -27 16
-44 27 -16 11 -37 23 -45 27 -8 4 -114 66 -235 138 -121 72 -227 134 -235 138
-8 4 -22 11 -30 17 -8 5 -50 30 -92 56 l-78 45 0 1109 0 1109 73 43 c39 24 79
47 87 51 8 4 22 11 30 17 24 16 463 275 480 283 8 4 29 16 45 27 17 11 36 23
44 27 8 3 103 59 210 123 108 64 203 119 211 123 8 4 29 16 45 27 17 11 39 24
50 29 11 5 37 21 58 35 21 14 39 26 41 26 2 0 72 41 155 90 84 50 154 90 156
90 2 0 24 14 48 30 25 17 48 30 51 30 4 0 25 12 49 27 57 37 79 51 97 60 18 9
359 209 380 223 8 6 24 15 35 20 11 6 34 19 50 30 17 11 40 24 52 29 11 5 24
15 28 20 3 6 17 11 31 11 l24 0 0 -2580z m-3100 971 c14 -27 14 -1915 0 -1942
-10 -18 -25 -19 -359 -19 -288 0 -356 3 -401 16 -83 24 -124 57 -179 138 l-26
40 0 796 0 796 26 40 c54 80 96 113 175 138 39 12 118 15 401 15 338 1 353 0
363 -18z"/>
<path d="M6590 5571 c-8 -6 -96 -92 -197 -192 -156 -157 -180 -185 -170 -199
7 -10 156 -164 332 -344 204 -208 320 -333 320 -346 0 -13 -115 -138 -320
-346 -176 -179 -324 -335 -330 -347 -8 -18 13 -42 180 -203 105 -101 198 -184
208 -184 15 0 341 324 592 588 43 45 85 82 95 82 16 0 191 -172 515 -507 88
-91 166 -163 176 -163 26 0 391 368 382 385 -5 7 -154 162 -333 345 -184 188
-325 340 -325 350 0 17 139 166 485 523 80 82 149 158 154 168 8 17 -16 46
-179 209 -145 146 -192 187 -204 180 -15 -8 -270 -263 -536 -537 -71 -73 -136
-133 -145 -133 -8 -1 -166 152 -350 340 -262 266 -338 338 -350 331z"/>
</g>
</svg>
