<?xml version="1.0" standalone="no"?>
<!DOCTYPE svg PUBLIC "-//W3C//DTD SVG 20010904//EN"
 "http://www.w3.org/TR/2001/REC-SVG-20010904/DTD/svg10.dtd">
<svg version="1.0" xmlns="http://www.w3.org/2000/svg"
 width="900.000000pt" height="900.000000pt" viewBox="0 0 900.000000 900.000000"
 preserveAspectRatio="xMidYMid meet">
<metadata>
Created by potrace 1.10, written by Peter Selinger 2001-2011
</metadata>
<g transform="translate(0.000000,900.000000) scale(0.100000,-0.100000)"
fill="#ffffff" stroke="none">
<path d="M5200 7982 c-20 -9 -67 -40 -105 -68 -39 -28 -105 -75 -148 -105 -44
-30 -120 -84 -170 -120 -132 -94 -293 -208 -341 -241 -22 -16 -70 -49 -106
-74 -36 -25 -105 -74 -155 -109 -49 -35 -128 -91 -175 -124 -47 -33 -122 -86
-167 -118 -45 -32 -128 -91 -185 -131 -57 -40 -143 -102 -193 -137 -49 -35
-119 -85 -155 -109 -36 -25 -102 -71 -147 -103 -45 -32 -124 -87 -174 -123
-51 -36 -111 -78 -134 -95 -80 -57 -310 -219 -359 -252 l-48 -33 -527 0 c-646
-1 -722 -8 -884 -91 -198 -100 -358 -277 -420 -465 -50 -151 -47 -91 -47 -995
0 -903 -2 -865 47 -994 107 -279 344 -481 633 -537 32 -6 296 -13 635 -17
l581 -6 39 -31 c37 -29 78 -58 235 -165 30 -21 93 -65 140 -98 47 -33 141 -99
210 -146 69 -47 163 -113 210 -146 47 -33 114 -81 150 -105 36 -25 103 -72
150 -105 47 -33 103 -72 125 -87 22 -15 66 -46 97 -69 31 -24 59 -43 63 -43 4
0 32 -19 63 -43 31 -23 75 -55 97 -69 22 -15 78 -54 125 -87 47 -33 114 -80
150 -105 62 -43 133 -92 285 -198 39 -27 99 -69 135 -94 36 -24 103 -72 150
-105 47 -33 110 -77 140 -98 228 -156 238 -161 320 -161 146 0 247 88 269 235
7 52 11 365 11 985 l0 908 53 16 c28 9 77 24 107 33 78 23 250 106 330 159 71
46 216 169 260 220 156 178 266 381 324 599 32 119 46 230 46 356 0 345 -129
679 -370 953 -41 47 -186 172 -248 212 -135 90 -293 161 -427 193 -27 7 -55
17 -62 23 -10 8 -13 210 -15 956 -3 710 -7 956 -16 982 -20 57 -84 133 -137
162 -44 24 -60 27 -140 27 -62 0 -101 -6 -125 -17z m-146 -828 c8 -20 8 -5308
0 -5328 -11 -29 -12 -28 -174 86 -25 17 -70 48 -100 69 -30 21 -93 65 -140 98
-47 33 -114 80 -150 105 -36 25 -87 61 -115 81 -27 20 -66 46 -85 60 -19 13
-69 47 -111 77 -42 29 -131 91 -198 138 -67 47 -160 112 -206 145 -47 33 -106
75 -132 93 -26 18 -93 64 -148 103 -55 38 -122 86 -150 105 -27 19 -95 66
-150 105 -55 38 -122 86 -150 105 -27 19 -92 64 -142 100 l-93 66 0 1128 0
1128 53 38 c28 21 79 57 112 79 33 23 101 70 150 105 110 78 369 259 450 315
33 23 96 67 140 98 98 69 127 89 280 196 66 46 140 99 165 116 25 17 74 51
109 76 35 24 84 59 110 77 25 18 75 53 111 78 36 25 103 72 150 105 47 33 110
77 140 98 30 21 75 52 100 69 162 114 163 115 174 86z m-2819 -2664 l0 -985
-425 -3 c-362 -2 -432 0 -478 14 -84 24 -126 56 -181 138 l-26 40 0 796 0 796
26 40 c54 80 96 113 175 138 41 12 120 14 479 13 l430 -2 0 -985z m3478 744
c88 -43 156 -94 222 -164 28 -29 58 -60 68 -69 9 -8 17 -19 17 -23 0 -4 12
-24 26 -45 39 -58 84 -158 105 -237 24 -90 26 -329 4 -391 -8 -22 -15 -48 -15
-57 0 -23 -61 -152 -94 -201 -14 -21 -26 -41 -26 -45 0 -4 -8 -15 -17 -23 -10
-9 -40 -40 -68 -69 -27 -29 -72 -70 -100 -91 -61 -46 -192 -112 -205 -104 -11
7 -14 1537 -3 1548 9 10 8 10 86 -29z"/>
<path d="M7530 6478 c-134 -126 -330 -321 -330 -329 0 -5 31 -43 68 -86 148
-169 261 -340 356 -538 66 -137 87 -186 116 -278 46 -145 67 -227 97 -387 26
-138 26 -601 0 -745 -31 -170 -65 -296 -134 -490 -25 -69 -123 -266 -186 -370
-76 -126 -182 -267 -279 -370 -41 -44 -80 -89 -85 -100 -10 -18 11 -42 175
-213 103 -106 193 -192 200 -192 26 0 222 219 327 364 11 16 34 47 51 70 88
119 212 345 285 521 28 66 57 135 65 153 8 18 14 39 14 47 0 8 6 29 14 47 8
18 22 62 31 98 10 36 23 85 30 110 13 45 32 154 60 331 21 136 21 602 0 742
-29 191 -66 367 -94 447 -4 14 -16 52 -26 85 -49 164 -202 498 -283 619 -18
26 -32 49 -32 51 0 27 -307 422 -355 457 -18 14 -30 8 -85 -44z"/>
<path d="M6810 5763 c-102 -97 -189 -185 -193 -194 -7 -12 7 -38 56 -100 61
-80 105 -145 135 -199 88 -159 147 -315 189 -505 26 -119 23 -455 -5 -580 -40
-180 -64 -249 -126 -374 -73 -148 -134 -239 -239 -356 -87 -96 -86 -89 -15
-166 195 -211 303 -319 317 -318 9 0 50 39 91 86 72 81 230 286 230 297 0 3
14 25 31 50 16 25 50 87 75 138 25 51 49 101 54 110 48 88 126 365 155 553 18
118 20 438 4 530 -6 33 -14 85 -19 115 -12 85 -49 227 -81 320 -32 91 -120
293 -149 340 -5 8 -31 51 -57 95 -79 134 -233 335 -258 335 -6 0 -94 -80 -195
-177z"/>
</g>
</svg>
